<?xml version="1.0" encoding="UTF-8"?>
<!DOCTYPE svg PUBLIC "-//W3C//DTD SVG 1.1//EN" "http://www.w3.org/Graphics/SVG/1.1/DTD/svg11.dtd">
<!-- Creator: CorelDRAW X6 -->
<svg xmlns="http://www.w3.org/2000/svg" xml:space="preserve" width="248px" height="227px" version="1.1" style="shape-rendering:geometricPrecision; text-rendering:geometricPrecision; image-rendering:optimizeQuality; fill-rule:evenodd; clip-rule:evenodd"
viewBox="0 0 1763600 1609560"
 xmlns:xlink="http://www.w3.org/1999/xlink">
 <defs>
  <style type="text/css">
   <![CDATA[
    .fil0 {fill:#FEFEFE}
    .fil2 {fill:#FFED00}
    .fil3 {fill:#333B93}
    .fil1 {fill:#CC252B}
    .fil4 {fill:#FFF12C}
    .fil5 {fill:#4D251B}
    .fil6 {fill:#FEFEFE;fill-rule:nonzero}
   ]]>
  </style>
      <clipPath id="id0">
       <path d="M0 0l1763600 0 0 1609560 -1763600 0 0 -1609560z"/>
      </clipPath>
       <clipPath id="id1">
        <path d="M438200 472349l869753 0 0 869752 -869753 0 0 -869752z"/>
       </clipPath>
       <clipPath id="id2">
        <path d="M259419 324664l1227315 0 0 1165113 -1227315 0 0 -1165113z"/>
       </clipPath>
       <clipPath id="id3">
        <path d="M567105 601631l611951 0 0 611188 -611951 0 0 -611188z"/>
       </clipPath>
       <clipPath id="id4">
        <path d="M225330 259612l1295494 0 0 1295217 -1295494 0 0 -1295217z"/>
       </clipPath>
 </defs>
 <g id="Слой_x0020_1">
  <metadata id="CorelCorpID_0Corel-Layer"/>
  <g id="_779299920">
   <circle class="fil0" cx="881806" cy="883758" r="630697"/>
   <g>
    <path class="fil1" d="M858996 73159l35841 0c54371,1199 110066,7814 167119,20046 12258,2633 27106,6708 38508,10070 12929,3798 24624,6682 37477,11100 88963,30535 210079,93943 276506,158618 52903,51503 81040,75263 126431,138697 57137,79850 88184,150225 118685,243582 7503,22955 14848,54379 18922,78223 4972,29059 18797,97238 7831,126121 -19208,50631 -76244,133885 -110795,180634l-114484 150645c-30971,41618 -75104,91939 -108121,132719 -31784,39254 -47034,50061 -90791,79213 -50606,33720 -99526,60868 -156991,83840 -79573,31817 -154275,49734 -247773,49734 -83447,0 -161016,-20650 -235634,-51755 -22050,-9189 -44460,-19333 -64540,-30576 -62017,-34710 -103090,-62528 -154703,-108398 -4888,-4342 -7294,-5156 -12207,-10060 -15678,-15653 -106821,-145908 -121552,-165837 -7101,-9616 -13448,-18310 -20138,-28430l-57473 -84193c-25839,-38759 -49432,-75741 -73620,-116622 -6498,-10991 -11059,-20960 -17137,-31431 -25613,-44100 -31113,-61757 -24800,-109974 2096,-16022 2834,-27894 5215,-43362 1853,-12065 4997,-27902 7671,-40898 18386,-89382 44620,-146838 84872,-224784 3136,-6079 5022,-9390 8719,-15561 46758,-77988 50917,-74693 100248,-136542 8292,-10380 57716,-58689 73168,-70527l26586 -21983c146016,-109244 304726,-168469 476960,-172309zm571749 1046245l2608 4066 -5173 -402c-18948,53775 -58638,115389 -86959,150443l-27341 31281c-23115,28598 -30031,28891 -44771,44284 -6682,6984 -8694,7085 -15284,13012 -9340,8410 -22326,18169 -32949,25706 -91554,65027 -216275,113721 -357521,111223 -91227,-1618 -201343,-27752 -278015,-73210 -44334,-26284 -51436,-30434 -88066,-59577l-88267 -87789c-52777,-68263 -59459,-83069 -96265,-166717l-805 -2230c-37980,-104541 -47923,-219930 -24498,-331111 4678,-22209 28757,-97347 28774,-97465 -822,-4477 -2063,-3923 2096,-3152 76437,-193604 278618,-373995 555241,-373937 142814,25 259444,48821 351225,114375 31549,22528 52173,41694 78382,69311 17363,18286 20264,18848 40109,44838 25354,33193 74669,106712 84495,147576l5324 444 -2834 3237c11142,35112 21345,61773 29092,100726 15863,79782 15670,156949 -427,236698 -3656,18135 -7538,34509 -12702,51746 -3479,11595 -14177,37284 -15469,46624z"/>
    <g>
     <circle class="fil2" cx="873077" cy="907223" r="395347"/>
     <g>
      <path class="fil3" d="M1215192 714798l-101397 13960c-8267,18319 -24289,72061 -27030,92300l113495 24959c2724,-3790 45953,-32823 53658,-37292l131025 -89533c13155,-8259 31600,-23140 45744,-30107l2825 -3237 -5324 -444 -212996 29394z"/>
      <path class="fil3" d="M492579 808683c5039,2775 48888,31951 52174,37921l106377 -23668c-8309,-30770 -14395,-64851 -23853,-93977l-95301 -14320 -213240 -31407c-4158,-771 -2917,-1324 -2096,3153l175939 122298z"/>
      <path class="fil3" d="M1091016 988059l22410 89735 104390 16684 210791 34056 5173 403 -2607 -4067c-8124,-3295 -15385,-9658 -22754,-14286l-131018 -89600c-7554,-5433 -15116,-11428 -23861,-15888 -2708,-3262 -22578,-15880 -28849,-20407 -8762,-6313 -21841,-12752 -27902,-20063l-105773 23433z"/>
      <path class="fil3" d="M491053 998154c-26258,20197 -97976,65303 -132132,87286 -7722,4964 -14479,9793 -21740,14630l-24808 14890 796 2231 212200 -28489 105421 -13918c7110,-28514 16249,-57146 23518,-87446l-110259 -24213c-11427,9818 -38583,27316 -52996,35029z"/>
      <path class="fil3" d="M673893 568145l16365 95913c21162,8787 71793,22168 96576,26510 5693,-9809 20298,-82348 22905,-98562 -4753,-3195 -19535,-24004 -24263,-30174 -4192,-5467 -7319,-9508 -11411,-14899 -4779,-6280 -7185,-10748 -11922,-16684l-113797 -149354c-2322,-2096 -1383,-1190 -4284,-3278l29831 190528z"/>
      <path class="fil3" d="M688439 1150492l-14898 94010 -31139 192322c512,-336 1182,-1417 1384,-1040 201,369 997,-813 1266,-1065 10605,-10144 -5978,6649 2272,-2179 3085,-3295 628,-646 3622,-4553l111616 -145203c2809,-6666 16995,-22872 22344,-30367 5231,-7328 19778,-24037 21991,-31147 5131,3689 1627,-2104 3756,3580l-23232 -100449 -98982 26091z"/>
      <path class="fil3" d="M931367 1227105c1760,-5106 -545,-536 3554,-3739 1937,6037 27726,38885 33444,46003l11378 15670c14621,14664 110702,148372 118282,151592l-32036 -188733 -16827 -97876c-14999,-9222 -73528,-23249 -94110,-28463l-23685 105546z"/>
      <path class="fil3" d="M978787 528086c-2297,6321 -17447,24255 -22755,31331 -4955,6607 -17212,24766 -23768,30032l22066 98453 84210 -21957c9725,-3203 6900,813 8627,-6054l15519 -96643 28849 -181481c-2414,1904 -1920,1275 -3990,3312l-80336 106100c-7563,9583 -19091,28825 -28422,36907z"/>
     </g>
     <g>
      <path class="fil1" d="M630564 1074843c-5508,16961 -11075,34207 -16869,51168 -5299,15493 -15586,37778 -18814,51863l93332 -27323 98982 -26092 -24155 -113511 -108950 -23551c-7278,30300 -16416,58932 -23526,87446z"/>
      <path class="fil1" d="M954834 1121617c20574,5215 79103,19242 94102,28464 18437,2197 73863,27014 95159,34962l-30887 -107190 -22419 -89735c-10413,981 -106108,22319 -112262,25572l-23693 107927z"/>
      <path class="fil1" d="M1046949 659942c-1735,6874 1098,2859 -8627,6061l-84218 21958 23551 108599 108883 24556c2742,-20239 18764,-73980 27031,-92300 6045,-29771 27977,-69612 37711,-98629l-1400 -780 -99854 33511c-3714,-1442 -2440,2406 -3077,-2976z"/>
      <path class="fil1" d="M627059 729018c9449,29126 15536,63199 23845,93976l112036 -24632c251,-662 612,-1995 729,-1693 101,293 587,-1141 729,-1510l22210 -104532c-24775,-4343 -75406,-17732 -96576,-26510 -18445,-5207 -80437,-29847 -90682,-30635l27709 95536z"/>
     </g>
     <g>
      <path class="fil4" d="M872787 904596l-98051 -97020 -444824 97171 543672 1551 96374 -99518 -97481 -432642 310 530458zm523777 5785l-522980 -4083 101011 96761 421969 -92678zm-624159 97700l99753 442107 1426 -543890 -101179 101783z"/>
      <path class="fil5" d="M772313 1008014l101271 -101716 -1526 543823 -99745 -442107zm202282 -4955l-101011 -96761 522887 4016 -421876 92745zm-102219 -628997l97582 432718 -96374 99518 -543764 -1618 444815 -97179 98949 98797 -1208 -532236zm-109436 424300c-159549,35087 -319181,71055 -478738,106159l478645 106804 108632 484631c35557,-160638 71567,-321192 106847,-481889 161174,-36714 322483,-72338 483625,-109303 -161485,-35951 -322912,-71809 -484304,-108204 -34652,-159809 -70904,-318670 -107383,-478075l-107324 479877z"/>
     </g>
    </g>
   </g>
  </g>
  <path class="fil6" d="M294330 625408l-108129 -62151 26435 -45987c6640,-11553 12459,-19392 17405,-23517 4955,-4150 10807,-6338 17582,-6640 6791,-285 13364,1392 19753,5072 8132,4679 13464,10883 16013,18680 2557,7797 1794,16802 -2264,27064 5458,-3136 10698,-5282 15746,-6423 5064,-1173 13305,-1936 24691,-2288l28673 -1065 -15007 26099 -32606 2096c-11603,788 -19107,1602 -22503,2423 -3345,830 -6112,2147 -8250,4000 -2154,1878 -4670,5315 -7562,10362l-2540 4419 45148 25957 -12585 21899zm-49776 -57750l9281 -16156c6020,-10471 9315,-17254 9935,-20381 604,-3094 260,-6037 -1064,-8745 -1308,-2725 -3606,-5022 -6850,-6883 -3647,-2104 -7143,-2800 -10514,-2163 -3353,654 -6346,2582 -8946,5776 -1282,1644 -4460,6884 -9541,15712l-9801 17036 27500 15804zm62830 -87881c-9608,-8334 -16433,-16777 -20474,-25312 -2968,-6296 -4737,-12978 -5349,-19995 -603,-7018 93,-13524 2038,-19552 2624,-8032 7252,-15888 13900,-23568 12048,-13917 25991,-21278 41862,-22167 15863,-838 31482,5383 46858,18713 15251,13205 23593,27693 25027,43421 1459,15745 -3849,30552 -15838,44394 -12148,14018 -26099,21480 -41853,22318 -15720,863 -31113,-5215 -46171,-18252zm16366 -20172c10681,9256 20935,13792 30727,13649 9785,-168 17993,-4049 24566,-11637 6598,-7621 9256,-16223 8040,-25856 -1274,-9617 -7370,-19166 -18328,-28649 -10807,-9373 -20935,-14001 -30367,-13842 -9440,126 -17547,4117 -24372,11998 -6808,7847 -9600,16533 -8392,25999 1232,9482 7260,18931 18126,28338zm149865 -64700l-32430 -41274 -80571 -28548 23216 -18244 53700 20608 -7932 -56567 22780 -17900 8778 85182 32329 41132 -19870 15611zm150778 -97406l-23584 13557 -23475 -19241 -43371 24926 5165 29780 -23157 13314 -20172 -132259 23123 -13297 105471 83220zm-64674 -19878l-38022 -31382 8401 48410 29621 -17028zm78835 16147l-39648 -117150 23928 -8090 32890 97179 59234 -20055 6757 19963 -83161 28153zm145136 -41978l-9457 -124361 52895 -4007c13280,-1015 23039,-621 29227,1148 6221,1761 11326,5374 15376,10799 4058,5458 6372,11830 6934,19182 712,9357 -1426,17255 -6439,23752 -5006,6498 -12870,10942 -23635,13365 5651,2733 10371,5860 14152,9390 3832,3521 9089,9910 15787,19124l17012 23115 -30024 2272 -20063 -25781c-7193,-9147 -12081,-14890 -14680,-17230 -2557,-2305 -5207,-3848 -7940,-4577 -2767,-713 -7017,-864 -12819,-419l-5089 385 3949 51931 -25186 1912zm19736 -73646l18579 -1408c12040,-914 19501,-2004 22436,-3253 2901,-1241 5139,-3178 6632,-5802 1517,-2616 2121,-5802 1844,-9541 -327,-4192 -1710,-7470 -4142,-9910 -2423,-2398 -5701,-3781 -9801,-4142 -2079,-134 -8191,185 -18352,956l-19602 1492 2406 31608zm217532 79313l-26979 -3429 -7110 -29528 -49617 -6305 -13859 26871 -26502 -3371 63761 -117611 26460 3353 33846 130020zm-39555 -54890l-11378 -47974 -22519 43664 33897 4310zm53272 56710l39983 -118140 23157 7839 21815 95628 26804 -79170 22109 7487 -39992 118131 -23895 -8091 -21589 -93851 -26283 77645 -22109 -7478zm192715 29453l10506 -18269 46967 26996 -24800 43145c-7126,1836 -15988,1928 -26619,344 -10598,-1619 -20340,-4981 -29252,-10095 -11310,-6506 -19787,-14521 -25454,-24112 -5651,-9575 -8049,-20030 -7194,-31290 847,-11259 4276,-22125 10246,-32513 6480,-11277 14613,-19937 24364,-26016 9767,-6036 20541,-8811 32320,-8275 9013,394 18646,3555 28959,9491 13422,7713 22293,16559 26611,26536 4267,10002 4653,20566 1089,31767l-24095 -8410c1542,-6187 1098,-12039 -1325,-17547 -2415,-5475 -6774,-10019 -13062,-13641 -9516,-5467 -18831,-6791 -27928,-3966 -9096,2842 -17078,10212 -23919,22109 -7395,12861 -10103,24146 -8099,33838 2020,9692 7621,17196 16860,22511 4561,2616 9659,4343 15267,5190 5635,855 10816,930 15595,251l7881 -13716 -24918 -14328zm43648 79925l81660 -94254 69772 60449 -13791 15930 -50690 -43916 -18127 20935 47127 40831 -13808 15929 -47127 -40838 -22126 25554 52526 45509 -13800 15921 -71616 -62050zm88007 76370l98068 -77041 32773 41702c8234,10472 13331,18806 15301,24926 1996,6154 1836,12400 -411,18797 -2280,6405 -6288,11872 -12081,16424 -7386,5802 -15142,8426 -23316,7873 -8183,-545 -16257,-4620 -24263,-12207 872,6212 897,11888 75,16994 -805,5131 -3186,13054 -7110,23752l-9733 26989 -18596 -23669 10253 -31029c3606,-11059 5651,-18319 6154,-21773 487,-3421 302,-6473 -620,-9147 -939,-2700 -3194,-6313 -6774,-10891l-3161 -4008 -40948 32170 -15611 -19862zm72170 -24574l11520 14647c7453,9499 12517,15092 15183,16835 2641,1719 5500,2507 8510,2289 3018,-201 6003,-1475 8954,-3789 3312,-2599 5257,-5576 5936,-8946 637,-3345 -34,-6841 -2021,-10447 -1048,-1802 -4711,-6715 -11008,-14722l-12140 -15452 -24934 19585zm38474 99628l13364 20742c-6640,5064 -10631,10438 -12022,16198 -1384,5768 -327,12048 3152,18847 3672,7186 7990,11814 12895,13901 4921,2088 9423,2096 13506,0 2641,-1350 4452,-3261 5542,-5743 1048,-2456 1283,-5969 663,-10480 -403,-3094 -1845,-9851 -4285,-20340 -3135,-13506 -3756,-23777 -1869,-30845 2641,-9935 8375,-17145 17187,-21656 5659,-2900 11805,-4016 18369,-3362 6574,671 12677,3354 18345,8049 5667,4695 10664,11268 15032,19803 7102,13867 9390,25915 6800,36068 -2574,10204 -8912,18076 -19040,23710l-12283 -22075c5240,-3898 8300,-8040 9206,-12450 914,-4410 -227,-9767 -3438,-16014 -3303,-6464 -7235,-10840 -11796,-13112 -2935,-1459 -5844,-1467 -8736,17 -2641,1349 -4318,3605 -5039,6774 -956,4058 67,12174 3060,24372 3010,12191 4435,21606 4360,28196 -92,6640 -1761,12635 -5022,18034 -3270,5399 -8409,9885 -15418,13473 -6347,3253 -13222,4553 -20583,3857 -7370,-696 -14060,-3563 -20055,-8653 -6020,-5064 -11494,-12450 -16424,-22083 -7185,-14027 -9474,-26452 -6850,-37292 2616,-10833 9759,-20130 21379,-27936z"/>
 </g>
</svg>
