<?xml version="1.0" standalone="no"?>
<!DOCTYPE svg PUBLIC "-//W3C//DTD SVG 20010904//EN"
 "http://www.w3.org/TR/2001/REC-SVG-20010904/DTD/svg10.dtd">
<svg version="1.0" xmlns="http://www.w3.org/2000/svg"
 width="992.000000pt" height="992.000000pt" viewBox="0 0 992.000000 992.000000"
 preserveAspectRatio="xMidYMid meet">
<metadata>
Created by potrace 1.11, written by Peter Selinger 2001-2013
</metadata>
<g transform="translate(0.000000,992.000000) scale(0.100000,-0.100000)"
fill="#000000" stroke="none">
<path d="M4595 9063 c-103 -7 -367 -43 -496 -68 -157 -31 -314 -71 -494 -127
-538 -167 -1146 -503 -1595 -879 -250 -210 -559 -546 -770 -839 -204 -283
-448 -752 -580 -1115 -95 -260 -183 -624 -215 -888 -50 -415 -41 -480 102
-741 242 -443 598 -985 1157 -1766 450 -629 450 -629 634 -783 194 -162 281
-227 453 -340 532 -346 1051 -551 1629 -643 165 -27 679 -27 860 -1 569 83
1128 292 1655 620 269 167 448 300 545 403 69 74 443 521 601 719 131 164 744
972 850 1120 277 387 490 741 550 916 42 124 24 382 -57 784 -61 304 -161 609
-318 967 -169 385 -419 776 -712 1110 -133 151 -523 520 -659 624 -345 262
-816 514 -1275 684 -312 115 -769 209 -1159 240 -123 9 -584 11 -706 3z m253
-290 c19 -9 46 -34 60 -56 23 -35 27 -51 27 -117 0 -68 -3 -81 -28 -113 -15
-20 -49 -46 -76 -58 l-48 -23 35 -24 c42 -28 53 -41 144 -160 38 -51 67 -96
63 -100 -4 -4 -41 -8 -83 -10 l-77 -4 -84 106 c-113 144 -129 156 -198 156
l-56 0 7 -67 c3 -38 9 -102 12 -145 l7 -76 -67 -7 c-37 -4 -70 -5 -73 -1 -4 3
-17 140 -29 303 -13 164 -25 319 -27 345 l-4 47 61 6 c253 26 376 25 434 -2z
m688 -3 c17 -7 33 -58 108 -347 49 -186 91 -349 94 -361 5 -24 4 -24 -64 -17
-38 4 -73 11 -77 15 -5 4 -17 40 -27 80 -10 39 -21 74 -24 77 -3 4 -50 12
-103 19 -54 7 -114 15 -133 18 -35 5 -36 5 -75 -70 l-40 -75 -44 5 c-24 3 -57
6 -72 6 -16 0 -29 5 -29 10 0 6 79 156 177 335 l176 325 56 -7 c31 -3 65 -9
77 -13z m580 -100 l61 -21 21 -92 c82 -364 97 -425 103 -422 3 3 37 96 74 207
37 112 69 205 71 207 4 4 114 -26 122 -33 5 -5 -207 -645 -218 -659 -3 -4 -34
2 -69 14 -43 15 -65 28 -70 43 -5 11 -32 126 -62 254 -29 127 -56 232 -59 232
-3 0 -36 -92 -73 -205 -46 -137 -73 -205 -83 -205 -15 0 -95 29 -106 39 -5 4
16 76 45 161 30 85 80 233 111 328 32 94 61 172 65 172 4 0 34 -9 67 -20z
m-2521 -400 c48 -140 90 -259 95 -264 4 -4 76 14 162 43 84 28 158 51 164 51
9 0 47 -100 40 -107 -4 -4 -466 -161 -466 -158 0 1 -49 148 -110 325 -60 178
-110 327 -110 330 0 10 124 48 132 41 4 -4 46 -121 93 -261z m3511 1 c83 -44
129 -84 162 -139 23 -39 27 -58 27 -119 0 -39 -3 -74 -6 -77 -3 -4 -35 5 -70
18 -52 19 -65 28 -67 47 -7 68 -15 89 -40 114 -68 68 -163 84 -237 40 -72 -42
-145 -171 -145 -257 0 -61 46 -135 103 -164 44 -23 133 -37 157 -24 16 8 50
58 50 72 0 2 -29 19 -65 38 -36 19 -65 40 -65 45 1 24 47 90 63 89 24 -2 247
-134 247 -146 0 -6 -29 -61 -65 -123 -63 -109 -67 -113 -105 -119 -59 -9 -176
12 -246 45 -80 38 -142 94 -179 160 -27 49 -30 62 -30 149 0 86 3 101 33 161
44 91 109 161 185 199 58 30 68 31 147 28 73 -3 94 -9 146 -37z m-3896 -217
c157 -124 289 -229 293 -233 10 -10 -111 -84 -127 -78 -6 3 -37 25 -68 51 -31
25 -59 46 -62 46 -18 0 -236 -135 -236 -147 0 -8 5 -46 11 -84 12 -79 14 -75
-67 -118 -24 -13 -47 -22 -49 -19 -11 11 -119 728 -111 735 12 13 112 71 121
72 6 0 138 -101 295 -225z m-640 -230 l24 -237 88 -112 c48 -62 88 -117 88
-121 -1 -11 -95 -84 -107 -83 -4 0 -47 51 -95 113 l-87 113 -221 78 c-121 43
-219 82 -217 88 2 6 28 30 59 55 l57 44 147 -56 c81 -31 148 -55 150 -54 1 2
-6 64 -16 138 -11 74 -19 144 -20 156 0 14 20 37 58 67 31 25 60 46 63 47 3 0
16 -106 29 -236z m5239 -53 c105 -90 191 -167 191 -170 -1 -15 -73 -82 -83
-78 -7 3 -70 55 -140 116 -71 61 -132 111 -136 111 -7 0 -46 -40 -84 -86 -18
-21 -16 -23 113 -134 71 -62 130 -116 130 -119 -1 -15 -73 -82 -83 -78 -7 3
-67 53 -135 112 -68 59 -127 104 -131 99 -4 -5 -32 -38 -62 -72 l-54 -64 22
-18 c12 -10 78 -66 147 -125 136 -118 135 -114 77 -169 -27 -26 -32 -27 -48
-15 -10 8 -100 85 -200 172 -183 158 -183 159 -166 181 66 83 439 506 445 504
4 -2 93 -77 197 -167z m-2659 -1 c678 -51 1291 -288 1840 -710 108 -83 410
-377 504 -490 198 -237 473 -690 522 -855 9 -33 21 -55 29 -55 8 0 12 -6 9
-14 -3 -8 -27 -17 -57 -21 -29 -4 -162 -22 -297 -40 -135 -19 -375 -52 -535
-74 -159 -22 -424 -58 -588 -81 -165 -23 -301 -39 -304 -36 -11 11 21 108 102
301 97 233 101 245 84 245 -6 0 -135 -42 -285 -92 -150 -51 -275 -90 -279 -87
-3 4 15 137 40 295 25 159 59 372 75 474 16 102 50 313 75 470 25 157 47 295
49 308 2 12 0 21 -5 20 -8 -3 -386 -499 -497 -653 -36 -49 -80 -108 -99 -130
-19 -22 -84 -107 -145 -190 -60 -82 -118 -158 -128 -169 -17 -18 -18 -17 -25
15 -4 19 -51 228 -105 464 -54 237 -126 552 -160 700 -74 328 -72 317 -76 313
-3 -3 -96 -414 -155 -683 -51 -231 -180 -801 -184 -814 -8 -22 -28 0 -169 189
-227 303 -737 969 -746 975 -14 9 -13 -15 10 -150 16 -103 54 -340 140 -895
11 -69 36 -217 55 -330 19 -113 35 -208 35 -212 0 -4 -64 15 -142 43 -225 81
-350 120 -356 114 -3 -3 27 -120 68 -260 40 -141 71 -258 67 -261 -3 -3 -110
10 -239 30 -128 20 -296 45 -373 56 -77 10 -264 38 -415 60 -489 72 -682 100
-698 100 -14 0 -13 -3 3 -19 18 -17 810 -569 1055 -735 139 -95 198 -139 204
-152 3 -7 -45 -22 -132 -41 -681 -150 -1288 -287 -1294 -292 -4 -4 180 -49
410 -100 734 -163 987 -221 1005 -229 14 -5 -10 -25 -112 -92 -72 -47 -181
-120 -243 -163 -62 -43 -201 -135 -308 -204 -107 -70 -253 -165 -325 -211
-136 -90 -284 -182 -290 -182 -2 0 -22 55 -44 123 -176 535 -219 1116 -122
1672 20 117 63 277 131 490 23 72 43 137 44 147 1 9 7 23 14 30 6 8 27 52 47
98 211 494 611 994 1073 1338 640 477 1447 712 2242 652z m3174 -514 c59 -77
116 -157 127 -179 48 -94 7 -207 -95 -259 -54 -28 -130 -21 -185 15 l-41 27 0
-52 c0 -37 -14 -93 -44 -181 -25 -71 -47 -131 -49 -133 -3 -3 -28 24 -56 60
l-52 65 41 128 c61 191 62 215 6 287 -15 18 -17 17 -63 -21 -26 -21 -78 -63
-115 -91 l-67 -53 -42 56 c-37 50 -41 58 -27 71 8 8 131 106 274 219 194 152
262 200 270 192 6 -7 59 -75 118 -151z m-6263 123 c80 -37 182 -137 220 -215
29 -59 31 -69 27 -147 -3 -69 -9 -92 -33 -132 -106 -182 -286 -245 -455 -160
-57 29 -141 104 -180 161 -40 57 -64 152 -55 220 6 52 53 143 98 193 34 36
106 83 151 97 62 21 161 13 227 -17z m3128 -1251 c144 -636 261 -1163 261
-1170 0 -8 -119 -137 -265 -288 l-265 -275 233 -6 c127 -4 780 -10 1450 -14
670 -4 1216 -9 1213 -12 -6 -7 -293 -70 -1721 -383 -71 -16 -235 -52 -363 -80
-128 -28 -239 -50 -247 -48 -7 2 -139 124 -294 272 l-281 268 1 1477 c0 836 5
1463 9 1446 5 -16 126 -551 269 -1187z m-3687 591 c20 -10 49 -35 65 -56 25
-33 28 -44 28 -115 0 -43 1 -78 1 -78 1 0 19 7 40 16 35 15 308 38 326 28 3
-2 -12 -35 -34 -73 l-40 -70 -51 -5 c-29 -3 -90 -8 -137 -11 -121 -9 -154 -19
-189 -63 -17 -20 -31 -41 -31 -47 0 -5 54 -41 120 -79 66 -37 120 -72 120 -77
0 -11 -60 -119 -66 -119 -2 0 -63 34 -136 76 -73 42 -207 120 -298 172 -91 52
-167 96 -169 98 -9 8 177 319 217 364 63 71 143 85 234 39z m7167 -35 c79 -16
187 -163 198 -268 9 -83 -3 -121 -51 -171 -23 -25 -47 -45 -52 -45 -5 0 -24
27 -42 60 l-33 61 25 30 c14 17 26 43 26 57 -1 61 -65 152 -108 152 -27 0 -52
-32 -52 -67 0 -18 9 -75 21 -126 40 -178 13 -269 -97 -323 -137 -67 -278 20
-344 210 -34 101 -23 176 37 246 59 68 67 69 108 5 l35 -56 -32 -40 c-44 -55
-45 -106 -3 -174 38 -61 87 -85 131 -63 16 7 31 24 34 38 6 26 4 40 -24 198
-15 85 -15 99 -2 146 29 99 119 151 225 130z m-574 -1191 c114 -361 157 -587
173 -911 21 -421 -35 -835 -165 -1220 -30 -90 -52 -170 -49 -178 18 -47 -62 5
-965 626 -36 25 -127 86 -202 137 -74 51 -138 97 -141 102 -4 5 2 12 11 15 16
5 484 111 1241 283 135 30 206 50 195 55 -10 4 -182 44 -383 88 -201 45 -444
99 -540 121 -96 22 -250 56 -343 76 -98 22 -166 41 -164 47 2 6 95 73 208 149
112 77 387 265 611 417 381 261 453 309 470 310 3 0 23 -53 43 -117z m-3463
-820 c148 -148 268 -271 268 -275 0 -10 -1245 -10 -2255 -1 -743 7 -758 7
-685 24 81 18 167 36 845 184 242 53 512 112 600 131 88 19 232 51 320 70 88
19 259 57 380 84 121 27 229 49 240 49 13 1 110 -89 287 -266z m272 -3123 l-7
-185 -18 80 c-9 44 -43 193 -74 330 -31 138 -71 318 -90 400 -18 83 -66 292
-105 465 -39 173 -89 394 -110 490 -22 96 -64 285 -95 420 -30 134 -55 251
-55 260 0 8 125 140 278 293 l277 277 3 -1322 c2 -728 0 -1406 -4 -1508z
m-1364 1877 c0 -18 -77 -244 -139 -410 -29 -77 -50 -142 -47 -145 3 -3 23 0
43 6 21 5 134 38 251 72 117 34 215 60 218 57 5 -5 -22 -181 -162 -1046 -47
-288 -84 -530 -82 -538 3 -12 578 725 687 879 20 29 79 106 129 171 51 65 92
123 92 128 0 5 6 9 14 9 8 0 17 -20 24 -52 6 -29 34 -154 62 -278 100 -437
241 -1066 252 -1120 6 -30 14 -58 17 -62 4 -4 58 223 120 505 63 281 128 577
147 657 18 80 42 189 54 243 13 56 27 97 33 96 7 0 34 -33 60 -72 27 -40 91
-126 142 -192 52 -66 196 -255 322 -420 281 -369 383 -498 390 -492 4 5 -22
167 -190 1152 -41 237 -72 433 -70 437 6 11 95 -19 311 -104 112 -44 205 -78
208 -75 3 2 -33 135 -79 296 -65 224 -81 291 -70 291 22 0 1675 -264 1721
-275 31 -7 29 -14 -73 -220 -452 -913 -1287 -1566 -2288 -1790 -183 -41 -329
-61 -542 -75 -566 -38 -1275 115 -1745 374 -346 192 -482 295 -794 604 -252
251 -363 383 -502 598 -97 151 -293 562 -271 569 7 2 131 20 277 39 759 101
898 120 1160 155 336 46 320 44 320 28z"/>
<path d="M4533 8663 c-25 -5 -29 -35 -16 -128 l6 -48 96 8 c113 8 157 24 171
61 13 33 -3 90 -30 104 -18 10 -182 12 -227 3z"/>
<path d="M5395 8496 c-33 -63 -58 -117 -55 -119 6 -6 171 -30 175 -25 1 2 -12
60 -29 131 l-31 127 -60 -114z"/>
<path d="M2940 8080 c0 -34 43 -240 50 -240 10 0 150 80 150 85 0 2 -37 35
-82 72 -119 98 -118 98 -118 83z"/>
<path d="M8123 7178 c-35 -28 -63 -54 -63 -59 0 -17 127 -164 153 -177 51 -25
117 21 117 81 0 23 -100 169 -133 195 -8 6 -31 -6 -74 -40z"/>
<path d="M1835 7258 c-35 -19 -76 -62 -96 -100 -40 -77 -15 -162 72 -243 61
-57 120 -84 182 -85 58 0 94 17 135 64 76 87 63 187 -36 283 -81 79 -196 115
-257 81z"/>
<path d="M1347 6578 c-33 -31 -119 -178 -113 -193 2 -7 35 -29 72 -50 78 -44
69 -49 134 75 49 96 51 129 9 164 -38 32 -70 33 -102 4z"/>
</g>
</svg>
